# xmcd CD database file
#
# Track frame offsets:
#	150
#	31562
#	67454
#	96190
#	124680
#	148321
#	185123
#	205268
#	244484
#
# Disc length: 3472 seconds
#
# Revision: 0
# Processed by: cddbd v1.5.2PL0 Copyright (c) Steve Scherf et al.
# Submitted via: CDex 1.51
#
DISCID=8f0d8e09
DTITLE=Tomomi Fukui Quintet - AT THAT MOMENT
DYEAR=2010
DGENRE=Jazz
TTITLE0=The shadow of your smile
TTITLE1=Hanabie
TTITLE2=Shiretoko Ryojou
TTITLE3=Polka Dots and Moonbeams
TTITLE4=At that moment
TTITLE5=Cafe de la Plage
TTITLE6=February in Paris
TTITLE7=Midnight
TTITLE8=Warm valley
EXTD=YEAR: 2010
EXTT0=
EXTT1=
EXTT2=
EXTT3=
EXTT4=
EXTT5=
EXTT6=
EXTT7=
EXTT8=
PLAYORDER=
